<?xml version="1.0" encoding="utf-8"?>
<!-- Generator: Adobe Illustrator 25.0.1, SVG Export Plug-In . SVG Version: 6.00 Build 0)  -->
<svg version="1.1" id="katman_1" xmlns="http://www.w3.org/2000/svg" xmlns:xlink="http://www.w3.org/1999/xlink" x="0px" y="0px"
	 viewBox="0 0 3385.8 1648.5" style="enable-background:new 0 0 3385.8 1648.5;" xml:space="preserve">
<style type="text/css">
	.st0{fill-rule:evenodd;clip-rule:evenodd;fill:#C23C40;}
	.st1{fill-rule:evenodd;clip-rule:evenodd;}
</style>
<g>
	<path class="st0" d="M750.4,1099.4H479.7L615,865h270.7L750.4,1099.4L750.4,1099.4z M1021.1,1099.4h270.7L1156.4,865H885.7
		L1021.1,1099.4L1021.1,1099.4z M1021.1,630.5L885.7,396.1L750.4,630.5L885.7,865L1021.1,630.5L1021.1,630.5z"/>
	<path class="st1" d="M1413.4,999.6h108.4v-39.3h-108.4v-48.4h122v-39.3h-167.9v226.8h171.1v-39.3h-125.2V999.6z M1410.2,666.2
		l48.2,168.6h44.1l48.2-168.6v168.6h42.8V608h-65.6l-47.5,159.2L1433,608h-65.6v226.8h42.8L1410.2,666.2L1410.2,666.2z M2454.3,608
		h-45.7v226.8h45.7V608z M2491.5,872.6h-45.7v226.8h45.7V872.6z M2906.1,608h-45.7v226.8h45.7V608z M1657.4,608h-45.7v226.8h45.7
		V608z M2796.6,696.4h-90.8V608h-45v226.8h45v-99h90.8v99h44.9V608h-44.9V696.4z M1725,834.8h46.6V647.3h55.4V608h-157.5v39.3h55.4
		L1725,834.8L1725,834.8z M2141.6,1099.4h46.6V911.9h55.5v-39.3h-157.5v39.3h55.4V1099.4z M2110.5,841.1c58.2,0,90.5-26.5,90.5-77.1
		V608h-45.7v160.1c0,19.5-16.5,35.8-44.8,35.8c-34.3,0-44.4-19.2-44.4-35.8V608h-45v156C2021.1,818.5,2054.9,841.1,2110.5,841.1z
		 M1765.2,999.6h108.4v-39.3h-108.4v-48.4h122v-39.3h-167.9v226.8h171.1v-39.3h-125.2V999.6z M2264.2,834.8h65.5
		c42.7,0,68.1-25.5,68.1-61.3c0-28.8-20.9-53.6-43.7-59.3c19.9-5.1,35.9-25.4,35.9-50.4c0-33.4-24.7-55.8-70.7-55.8h-102.3v226.8
		L2264.2,834.8L2264.2,834.8z M2316,800.5h-53.6v-65.8h53c19.1,0,35.2,11,35.2,33C2350.8,786.3,2336.1,800.5,2316,800.5z
		 M2319.4,644c12.5,0,26.4,11.6,26.4,26.9c0,13.6-9.8,28.5-29,28.5h-54.4v-55.4L2319.4,644L2319.4,644L2319.4,644z M2391.9,990.6
		c19.5-5.9,40.3-23.3,40.3-54.8c0-40.3-27.3-63.5-73.8-63.5h-103.5v226.8h46v-89.3h39c23.6,0,36.5,12.2,40.3,28.4
		c4.3,17.9,3.2,44.4,7.7,61h46.2c-4.5-17.4-7.1-41-8.2-59.6C2424.2,1008.8,2408.1,996.5,2391.9,990.6L2391.9,990.6z M2300.9,973.3
		v-61.7h55.3c18.7,0,31.1,13.1,31.1,31c0,12.6-11,30.8-29.7,30.8H2300.9L2300.9,973.3z M1599.2,872.6h-45.9v226.8h152.8v-39.3
		h-106.9V872.6z M1903.7,738.9c36.8,6.4,57.7,13.2,57.7,35.2c0,14.9-14.7,29-45.2,29c-30.5,0-46.2-17.4-46.2-38h-44
		c0,39.5,25.6,75.5,92.2,75.5c63.5,0,91-33.6,91-71.9c0-35.8-23.4-58.4-65.3-66.7c-40.3-7.9-67.9-9.6-67.9-35.1
		c0-17.5,16-27.9,40.7-27.9c26.2,0,41.2,12.9,41.2,34.6h44.4c0-35.8-27.1-72.7-87.4-72.7c-41.6,0-84.8,24-84.8,68.8
		C1830,707.6,1857.7,730.9,1903.7,738.9L1903.7,738.9z M2543.1,738.9c36.8,6.4,57.7,13.2,57.7,35.2c0,14.9-14.7,29-45.2,29
		c-30.5,0-46.2-17.4-46.2-38h-44c0,39.5,25.6,75.5,92.2,75.5c63.5,0,91-33.6,91-71.9c0-35.8-23.4-58.4-65.3-66.7
		c-40.3-7.9-67.9-9.6-67.9-35.1c0-17.5,16-27.9,40.7-27.9c26.2,0,41.2,12.9,41.2,34.6h44.4c0-35.8-27.1-72.7-87.4-72.7
		c-41.6,0-84.8,24-84.8,68.8C2469.4,707.6,2497.1,730.9,2543.1,738.9L2543.1,738.9z"/>
	<path class="st1" d="M1993.7,1064.4c-36.9,0-58.5-36.2-58.5-79.3c0-43.1,20.8-79.3,58.5-79.3c28.1,0,42.5,17.4,48.7,38.8h47.5
		c-7.8-44.4-42.5-77.4-97.5-77.4c-69.4,0-104.5,53.1-104.5,118.6c0,65.5,36.5,118.6,104.5,118.6c54.4,0,91.1-31.6,97.8-80.1h-47.8
		C2036.2,1047,2021.3,1064.4,1993.7,1064.4L1993.7,1064.4z M2608.4,1064.4c-37,0-58.5-36.2-58.5-79.3c0-43.1,20.8-79.3,58.5-79.3
		c28,0,42.4,17.4,48.7,38.8h47.6c-7.8-44.4-42.5-77.4-97.5-77.4c-69.4,0-104.5,53.1-104.5,118.6c0,65.5,36.5,118.6,104.5,118.6
		c54.4,0,91.1-31.6,97.8-80.1h-47.8C2650.8,1047,2635.9,1064.4,2608.4,1064.4L2608.4,1064.4z"/>
</g>
</svg>
